<svg width="1920" height="1080" viewBox="0 0 1920 1080" fill="none" xmlns="http://www.w3.org/2000/svg">
<circle cx="70" cy="1020" r="21.5" stroke="#D81E05" stroke-width="2"/>
<path fill-rule="evenodd" clip-rule="evenodd" d="M69.25 1050L69.25 990L70.75 990L70.75 1050L69.25 1050Z" fill="#D81E05"/>
<path fill-rule="evenodd" clip-rule="evenodd" d="M40 1019.25H100V1020.75H40V1019.25Z" fill="#D81E05"/>
<circle cx="1850" cy="1020" r="21.5" stroke="#D81E05" stroke-width="2"/>
<path fill-rule="evenodd" clip-rule="evenodd" d="M1849.25 1050L1849.25 990L1850.75 990L1850.75 1050L1849.25 1050Z" fill="#D81E05"/>
<path fill-rule="evenodd" clip-rule="evenodd" d="M1820 1019.25H1880V1020.75H1820V1019.25Z" fill="#D81E05"/>
<circle cx="70" cy="60" r="21.5" stroke="#D81E05" stroke-width="2"/>
<path fill-rule="evenodd" clip-rule="evenodd" d="M69.25 90L69.25 30L70.75 30L70.75 90L69.25 90Z" fill="#D81E05"/>
<path fill-rule="evenodd" clip-rule="evenodd" d="M40 59.25L100 59.25V60.75L40 60.75V59.25Z" fill="#D81E05"/>
<circle cx="960" cy="60" r="21.5" stroke="#D81E05" stroke-width="2"/>
<path fill-rule="evenodd" clip-rule="evenodd" d="M959.25 90L959.25 30L960.75 30L960.75 90L959.25 90Z" fill="#D81E05"/>
<path fill-rule="evenodd" clip-rule="evenodd" d="M930 59.25L990 59.25V60.75L930 60.75V59.25Z" fill="#D81E05"/>
<circle cx="960" cy="1020" r="21.5" stroke="#D81E05" stroke-width="2"/>
<path fill-rule="evenodd" clip-rule="evenodd" d="M959.25 1050L959.25 990L960.75 990L960.75 1050L959.25 1050Z" fill="#D81E05"/>
<path fill-rule="evenodd" clip-rule="evenodd" d="M930 1019.25H990V1020.75H930V1019.25Z" fill="#D81E05"/>
<circle cx="1850" cy="60" r="21.5" stroke="#D81E05" stroke-width="2"/>
<path fill-rule="evenodd" clip-rule="evenodd" d="M1849.25 90L1849.25 30L1850.75 30L1850.75 90L1849.25 90Z" fill="#D81E05"/>
<path fill-rule="evenodd" clip-rule="evenodd" d="M1820 59.25L1880 59.25V60.75L1820 60.75V59.25Z" fill="#D81E05"/>
<line x1="70" y1="125" x2="70" y2="955" stroke="#D81E05" stroke-width="2"/>
<line x1="1850" y1="125" x2="1850" y2="955" stroke="#D81E05" stroke-width="2"/>
<path d="M297.268 1024.51L296.984 1026H287.883L288.117 1024.76C288.475 1024.15 288.876 1023.61 289.318 1023.14C289.761 1022.66 290.223 1022.23 290.705 1021.84C291.031 1021.58 291.356 1021.34 291.682 1021.12C292.014 1020.89 292.342 1020.67 292.668 1020.46C292.993 1020.25 293.312 1020.05 293.625 1019.86C294.087 1019.56 294.52 1019.27 294.924 1018.98C295.334 1018.69 295.692 1018.37 295.998 1018.04C296.304 1017.71 296.545 1017.35 296.721 1016.96C296.896 1016.56 296.984 1016.11 296.984 1015.62C296.984 1014.98 296.779 1014.47 296.369 1014.08C295.965 1013.68 295.419 1013.48 294.729 1013.48C294.019 1013.48 293.4 1013.68 292.873 1014.07C292.346 1014.45 291.962 1015.03 291.721 1015.8L290.061 1015.44C290.412 1014.34 290.992 1013.49 291.799 1012.91C292.606 1012.33 293.618 1012.04 294.836 1012.04C295.63 1012.04 296.327 1012.18 296.926 1012.47C297.525 1012.76 297.99 1013.16 298.322 1013.69C298.661 1014.2 298.83 1014.8 298.83 1015.47C298.83 1016.16 298.664 1016.82 298.332 1017.46C298.111 1017.87 297.818 1018.28 297.453 1018.67C297.095 1019.06 296.623 1019.47 296.037 1019.91C295.458 1020.34 294.719 1020.84 293.82 1021.41C292.863 1022.02 292.089 1022.57 291.496 1023.06C290.91 1023.56 290.467 1024.04 290.168 1024.51H297.268ZM306.408 1011.51L299.572 1026.2H298L304.865 1011.51H306.408ZM310.227 1018.24C311.418 1018.24 312.307 1018 312.893 1017.52C313.485 1017.05 313.781 1016.35 313.781 1015.44C313.781 1014.84 313.583 1014.36 313.186 1014.01C312.795 1013.66 312.271 1013.48 311.613 1013.48C310.839 1013.48 310.171 1013.68 309.611 1014.08C309.058 1014.47 308.671 1015.03 308.449 1015.76L306.711 1015.62C307.089 1014.41 307.71 1013.51 308.576 1012.92C309.449 1012.33 310.493 1012.04 311.711 1012.04C312.928 1012.04 313.889 1012.33 314.592 1012.93C315.295 1013.53 315.646 1014.35 315.646 1015.39C315.646 1016.39 315.331 1017.2 314.699 1017.84C314.074 1018.46 313.192 1018.85 312.053 1019L312.043 1019.04C312.896 1019.21 313.56 1019.55 314.035 1020.06C314.51 1020.57 314.748 1021.22 314.748 1022.03C314.748 1022.83 314.553 1023.56 314.162 1024.19C313.765 1024.82 313.192 1025.32 312.443 1025.67C311.701 1026.02 310.832 1026.2 309.836 1026.2C309.009 1026.2 308.273 1026.05 307.629 1025.77C306.32 1025.17 305.5 1024.15 305.168 1022.7L306.77 1022.23C306.965 1022.99 307.349 1023.59 307.922 1024.06C308.495 1024.51 309.182 1024.74 309.982 1024.74C310.9 1024.74 311.617 1024.5 312.131 1024.02C312.652 1023.53 312.912 1022.88 312.912 1022.05C312.912 1021.33 312.668 1020.76 312.18 1020.37C311.691 1019.96 311.027 1019.76 310.188 1019.76H308.977L309.27 1018.24H310.227Z" fill="#D81E05"/>
<path d="M1684.23 1015.83L1682.28 1026H1680.62L1683.28 1012.24H1685.59L1687.43 1021.78C1687.46 1021.9 1687.5 1022.14 1687.55 1022.47C1687.6 1022.81 1687.67 1023.24 1687.74 1023.78C1687.91 1023.44 1688.08 1023.09 1688.25 1022.75C1688.42 1022.4 1688.59 1022.05 1688.76 1021.7L1694.16 1012.24H1696.66L1693.99 1026H1692.31L1694.07 1016.94C1694.19 1016.34 1694.3 1015.79 1694.4 1015.31C1694.51 1014.82 1694.62 1014.39 1694.71 1014.01C1694.51 1014.42 1694.33 1014.79 1694.15 1015.13C1693.98 1015.47 1693.82 1015.77 1693.68 1016.04C1693.54 1016.31 1693.41 1016.54 1693.29 1016.74L1687.94 1026H1686.73L1684.92 1016.74C1684.9 1016.65 1684.86 1016.38 1684.79 1015.92C1684.72 1015.46 1684.63 1014.82 1684.52 1014.01C1684.5 1014.2 1684.46 1014.45 1684.4 1014.76C1684.36 1015.06 1684.3 1015.42 1684.23 1015.83ZM1696.82 1030.15C1696.36 1030.15 1695.93 1030.1 1695.53 1030.01L1695.83 1028.71C1696.14 1028.76 1696.39 1028.78 1696.58 1028.78C1697.2 1028.78 1697.74 1028.57 1698.21 1028.16C1698.69 1027.74 1699.15 1027.14 1699.61 1026.34L1699.87 1025.88L1697.75 1015.43H1699.54L1700.63 1021.27C1700.69 1021.53 1700.74 1021.81 1700.78 1022.1C1700.83 1022.39 1700.87 1022.67 1700.91 1022.94C1700.95 1023.21 1700.98 1023.44 1701.01 1023.65C1701.03 1023.85 1701.04 1023.99 1701.04 1024.09C1701.08 1024.01 1701.11 1023.94 1701.15 1023.85C1701.2 1023.76 1701.25 1023.66 1701.3 1023.56L1702.49 1021.36L1705.72 1015.43H1707.67L1701.55 1026C1700.82 1027.27 1700.24 1028.15 1699.81 1028.64C1699.38 1029.14 1698.92 1029.52 1698.44 1029.77C1697.96 1030.02 1697.42 1030.15 1696.82 1030.15ZM1716.6 1027.7V1028.44H1705.1V1027.7H1716.6ZM1726.65 1022.9C1726.65 1023.96 1726.25 1024.77 1725.44 1025.35C1724.63 1025.91 1723.47 1026.2 1721.94 1026.2C1720.81 1026.2 1719.91 1026.01 1719.24 1025.63C1718.57 1025.24 1718.11 1024.64 1717.84 1023.82L1719.28 1023.28C1719.49 1023.85 1719.82 1024.26 1720.27 1024.53C1720.73 1024.79 1721.34 1024.92 1722.1 1024.92C1723.99 1024.92 1724.94 1024.3 1724.94 1023.06C1724.94 1022.66 1724.78 1022.32 1724.44 1022.04C1724.1 1021.78 1723.4 1021.48 1722.33 1021.15C1721.49 1020.87 1720.87 1020.6 1720.46 1020.35C1720.04 1020.09 1719.72 1019.78 1719.5 1019.44C1719.28 1019.09 1719.17 1018.68 1719.17 1018.22C1719.17 1017.27 1719.55 1016.55 1720.3 1016.04C1721.06 1015.52 1722.12 1015.27 1723.5 1015.27C1724.65 1015.27 1725.55 1015.48 1726.19 1015.89C1726.84 1016.3 1727.24 1016.92 1727.38 1017.76L1725.79 1018C1725.65 1017.49 1725.38 1017.12 1724.98 1016.89C1724.58 1016.66 1724.05 1016.55 1723.38 1016.55C1722.57 1016.55 1721.95 1016.68 1721.51 1016.94C1721.08 1017.19 1720.87 1017.55 1720.87 1018.02C1720.87 1018.29 1720.94 1018.53 1721.07 1018.71C1721.21 1018.9 1721.41 1019.06 1721.67 1019.21C1721.93 1019.36 1722.52 1019.58 1723.45 1019.88C1724.28 1020.14 1724.91 1020.4 1725.32 1020.67C1725.75 1020.93 1726.07 1021.25 1726.3 1021.62C1726.53 1021.98 1726.65 1022.41 1726.65 1022.9ZM1727.95 1030.15C1727.49 1030.15 1727.06 1030.1 1726.66 1030.01L1726.96 1028.71C1727.28 1028.76 1727.53 1028.78 1727.71 1028.78C1728.33 1028.78 1728.88 1028.57 1729.35 1028.16C1729.82 1027.74 1730.29 1027.14 1730.74 1026.34L1731.01 1025.88L1728.89 1015.43H1730.67L1731.77 1021.27C1731.82 1021.53 1731.87 1021.81 1731.91 1022.1C1731.96 1022.39 1732 1022.67 1732.04 1022.94C1732.08 1023.21 1732.11 1023.44 1732.14 1023.65C1732.16 1023.85 1732.18 1023.99 1732.18 1024.09C1732.21 1024.01 1732.25 1023.94 1732.29 1023.85C1732.33 1023.76 1732.38 1023.66 1732.43 1023.56L1733.62 1021.36L1736.86 1015.43H1738.8L1732.69 1026C1731.96 1027.27 1731.38 1028.15 1730.95 1028.64C1730.51 1029.14 1730.05 1029.52 1729.57 1029.77C1729.09 1030.02 1728.55 1030.15 1727.95 1030.15ZM1741.04 1020.08L1739.88 1026H1738.12L1739.75 1017.69C1739.81 1017.38 1739.87 1017.04 1739.93 1016.66C1740 1016.29 1740.06 1015.88 1740.13 1015.43H1741.79C1741.79 1015.48 1741.77 1015.62 1741.74 1015.84C1741.71 1016.07 1741.67 1016.31 1741.62 1016.58C1741.58 1016.84 1741.55 1017.06 1741.51 1017.24H1741.54C1742.08 1016.49 1742.62 1015.97 1743.16 1015.69C1743.71 1015.39 1744.36 1015.25 1745.11 1015.25C1746.07 1015.25 1746.79 1015.49 1747.28 1015.96C1747.76 1016.44 1748.01 1017.12 1748.01 1018.02C1748.01 1018.23 1747.99 1018.47 1747.96 1018.73C1747.93 1019 1747.87 1019.3 1747.8 1019.62L1746.56 1026H1744.79L1746.03 1019.7C1746.14 1019.12 1746.2 1018.63 1746.2 1018.24C1746.2 1017.15 1745.62 1016.61 1744.45 1016.61C1743.91 1016.61 1743.4 1016.75 1742.93 1017.04C1742.47 1017.32 1742.07 1017.72 1741.74 1018.24C1741.41 1018.75 1741.18 1019.37 1741.04 1020.08ZM1751.61 1026.2C1751.06 1026.2 1750.62 1026.03 1750.3 1025.7C1749.99 1025.37 1749.83 1024.93 1749.83 1024.38C1749.83 1024.02 1749.88 1023.6 1749.98 1023.11L1751.21 1016.71H1749.99L1750.24 1015.43H1751.48L1752.51 1013.07H1753.68L1753.22 1015.43H1755.18L1754.92 1016.71H1752.97L1751.75 1023.01C1751.67 1023.4 1751.63 1023.71 1751.63 1023.94C1751.63 1024.23 1751.7 1024.44 1751.85 1024.58C1752 1024.73 1752.22 1024.8 1752.51 1024.8C1752.76 1024.8 1753.09 1024.75 1753.49 1024.66L1753.3 1025.96C1752.66 1026.12 1752.09 1026.2 1751.61 1026.2ZM1758.23 1017.24C1758.77 1016.49 1759.31 1015.97 1759.85 1015.69C1760.4 1015.39 1761.05 1015.25 1761.8 1015.25C1762.76 1015.25 1763.48 1015.49 1763.96 1015.96C1764.45 1016.44 1764.7 1017.12 1764.7 1018.02C1764.7 1018.23 1764.68 1018.47 1764.65 1018.73C1764.62 1019 1764.56 1019.3 1764.49 1019.62L1763.25 1026H1761.48L1762.71 1019.7C1762.83 1019.12 1762.89 1018.63 1762.89 1018.24C1762.89 1017.15 1762.31 1016.61 1761.14 1016.61C1760.6 1016.61 1760.09 1016.75 1759.62 1017.04C1759.16 1017.32 1758.76 1017.72 1758.43 1018.24C1758.1 1018.75 1757.87 1019.37 1757.72 1020.08L1756.57 1026H1754.82L1757.64 1011.51H1759.39L1758.66 1015.28C1758.6 1015.6 1758.54 1015.93 1758.46 1016.26C1758.38 1016.59 1758.29 1016.91 1758.2 1017.24H1758.23ZM1768.73 1023.86L1768.31 1026H1766.41L1766.83 1023.86H1768.73ZM1776.6 1026.2C1775.8 1026.2 1775.15 1026.03 1774.64 1025.69C1774.14 1025.35 1773.78 1024.87 1773.57 1024.26H1773.53C1773.53 1024.29 1773.52 1024.37 1773.51 1024.48C1773.49 1024.58 1773.47 1024.72 1773.45 1024.9C1773.42 1025.07 1773.32 1025.6 1773.15 1026.47C1772.99 1027.35 1772.75 1028.57 1772.44 1030.15H1770.69L1773.12 1017.59C1773.16 1017.44 1773.19 1017.28 1773.21 1017.12C1773.25 1016.97 1773.27 1016.81 1773.3 1016.65C1773.33 1016.45 1773.36 1016.24 1773.39 1016.04C1773.41 1015.84 1773.44 1015.64 1773.47 1015.43H1775.1C1775.1 1015.55 1775.09 1015.72 1775.07 1015.93C1775.05 1016.14 1775.03 1016.35 1775 1016.55C1774.97 1016.75 1774.95 1016.9 1774.93 1017.01H1774.97C1775.45 1016.39 1775.95 1015.94 1776.47 1015.66C1777 1015.38 1777.65 1015.24 1778.43 1015.24C1779.45 1015.24 1780.24 1015.55 1780.81 1016.17C1781.38 1016.78 1781.67 1017.62 1781.67 1018.7C1781.67 1020.02 1781.47 1021.3 1781.07 1022.53C1780.68 1023.77 1780.11 1024.69 1779.38 1025.3C1778.66 1025.9 1777.73 1026.2 1776.6 1026.2ZM1777.92 1016.6C1777.28 1016.6 1776.72 1016.73 1776.26 1017C1775.8 1017.26 1775.42 1017.65 1775.1 1018.18C1774.89 1018.53 1774.71 1018.95 1774.55 1019.44C1774.39 1019.93 1774.27 1020.42 1774.19 1020.93C1774.11 1021.43 1774.07 1021.9 1774.07 1022.32C1774.07 1023.13 1774.28 1023.77 1774.69 1024.22C1775.1 1024.67 1775.68 1024.9 1776.42 1024.9C1777.22 1024.9 1777.86 1024.65 1778.33 1024.15C1778.56 1023.91 1778.77 1023.58 1778.96 1023.17C1779.14 1022.76 1779.3 1022.31 1779.43 1021.82C1779.56 1021.33 1779.66 1020.83 1779.73 1020.35C1779.8 1019.85 1779.83 1019.4 1779.83 1019.01C1779.83 1018.21 1779.68 1017.6 1779.38 1017.2C1779.07 1016.8 1778.58 1016.6 1777.92 1016.6ZM1786.24 1026.21C1785.22 1026.21 1784.42 1025.9 1783.85 1025.29C1783.28 1024.67 1783 1023.82 1783 1022.75C1783 1021.43 1783.2 1020.15 1783.6 1018.9C1784.01 1017.66 1784.57 1016.74 1785.29 1016.15C1786.02 1015.55 1786.94 1015.25 1788.07 1015.25C1788.87 1015.25 1789.52 1015.42 1790.02 1015.76C1790.53 1016.09 1790.89 1016.57 1791.09 1017.18H1791.14C1791.19 1016.91 1791.23 1016.65 1791.28 1016.39C1791.32 1016.12 1791.37 1015.86 1791.42 1015.6L1792.22 1011.51H1793.97L1791.58 1023.82C1791.49 1024.28 1791.41 1024.69 1791.35 1025.05C1791.29 1025.42 1791.24 1025.73 1791.21 1026H1789.53C1789.53 1025.67 1789.6 1025.15 1789.74 1024.44H1789.69C1789.21 1025.06 1788.71 1025.51 1788.18 1025.79C1787.66 1026.07 1787.01 1026.21 1786.24 1026.21ZM1786.75 1024.85C1788 1024.85 1788.94 1024.32 1789.57 1023.26C1789.79 1022.9 1789.97 1022.49 1790.12 1022.01C1790.27 1021.52 1790.39 1021.02 1790.47 1020.51C1790.55 1020 1790.6 1019.54 1790.6 1019.12C1790.6 1018.31 1790.39 1017.68 1789.97 1017.23C1789.56 1016.77 1788.99 1016.55 1788.25 1016.55C1787.46 1016.55 1786.83 1016.78 1786.37 1017.25C1786.06 1017.56 1785.79 1018.02 1785.56 1018.63C1785.33 1019.23 1785.15 1019.88 1785.02 1020.57C1784.9 1021.25 1784.83 1021.88 1784.83 1022.44C1784.83 1023.24 1784.99 1023.84 1785.29 1024.24C1785.6 1024.65 1786.08 1024.85 1786.75 1024.85ZM1797.7 1016.71L1795.89 1026H1794.13L1795.94 1016.71H1794.45L1794.71 1015.43H1796.19L1796.42 1014.24C1796.56 1013.53 1796.76 1012.98 1797.01 1012.6C1797.26 1012.24 1797.58 1011.96 1797.98 1011.78C1798.38 1011.6 1798.9 1011.51 1799.53 1011.51C1800.02 1011.51 1800.42 1011.55 1800.74 1011.62L1800.49 1012.96C1800.42 1012.95 1800.34 1012.94 1800.26 1012.93C1800.19 1012.92 1800.12 1012.91 1800.05 1012.9C1799.98 1012.9 1799.9 1012.89 1799.82 1012.89C1799.75 1012.89 1799.67 1012.88 1799.6 1012.88C1799.18 1012.88 1798.87 1012.99 1798.65 1013.21C1798.44 1013.42 1798.26 1013.84 1798.13 1014.49L1797.95 1015.43H1800.01L1799.76 1016.71H1797.7Z" fill="#D81E05"/>
<rect x="161" y="51" width="18" height="18" stroke="#D81E05" stroke-width="2"/>
<rect x="180" y="51" width="18" height="18" stroke="#D81E05" stroke-width="2"/>
<rect x="199" y="51" width="18" height="18" stroke="#D81E05" stroke-width="2"/>
<rect x="218" y="51" width="18" height="18" stroke="#D81E05" stroke-width="2"/>
<rect x="237" y="51" width="18" height="18" stroke="#D81E05" stroke-width="2"/>
<rect x="256" y="51" width="18" height="18" stroke="#D81E05" stroke-width="2"/>
<rect x="161" y="1011" width="18" height="18" stroke="#D81E05" stroke-width="2"/>
<rect x="180" y="1011" width="18" height="18" stroke="#D81E05" stroke-width="2"/>
<rect x="199" y="1011" width="18" height="18" stroke="#D81E05" stroke-width="2"/>
<rect x="218" y="1011" width="18" height="18" stroke="#D81E05" stroke-width="2"/>
<rect x="237" y="1011" width="18" height="18" stroke="#D81E05" stroke-width="2"/>
<rect x="256" y="1011" width="18" height="18" stroke="#D81E05" stroke-width="2"/>
</svg>
