<svg width="44" height="46" viewBox="0 0 44 46" fill="none" xmlns="http://www.w3.org/2000/svg">
<path d="M19.495 2.24588C20.5008 0.139528 23.4992 0.139528 24.505 2.24588V2.24588C25.2763 3.86114 27.3522 4.33494 28.7479 3.21431V3.21431C30.5681 1.75296 33.2695 3.0539 33.2618 5.38807V5.38807C33.2559 7.17802 34.9206 8.50558 36.6644 8.10153V8.10153C38.9383 7.57462 40.8078 9.91884 39.7881 12.0185V12.0185C39.0061 13.6286 39.93 15.547 41.6763 15.9396V15.9396C43.9537 16.4515 44.6209 19.3747 42.7912 20.824V20.824C41.3881 21.9354 41.3881 24.0646 42.7912 25.176V25.176C44.6209 26.6253 43.9537 29.5485 41.6763 30.0604V30.0604C39.93 30.453 39.0061 32.3714 39.7881 33.9815V33.9815C40.8078 36.0812 38.9383 38.4254 36.6644 37.8985V37.8985C34.9206 37.4944 33.2559 38.822 33.2618 40.6119V40.6119C33.2695 42.9461 30.5681 44.247 28.7479 42.7857V42.7857C27.3522 41.6651 25.2763 42.1389 24.505 43.7541V43.7541C23.4992 45.8605 20.5008 45.8605 19.495 43.7541V43.7541C18.7237 42.1389 16.6478 41.6651 15.2521 42.7857V42.7857C13.4319 44.247 10.7305 42.9461 10.7382 40.6119V40.6119C10.7441 38.822 9.07939 37.4944 7.33562 37.8985V37.8985C5.06169 38.4254 3.19224 36.0812 4.21193 33.9815V33.9815C4.99388 32.3714 4.07004 30.453 2.32365 30.0604V30.0604C0.0462868 29.5485 -0.620912 26.6253 1.20882 25.176V25.176C2.61194 24.0646 2.61194 21.9354 1.20882 20.824V20.824C-0.620912 19.3747 0.0462865 16.4515 2.32365 15.9396V15.9396C4.07004 15.547 4.99388 13.6286 4.21193 12.0185V12.0185C3.19224 9.91884 5.06169 7.57462 7.33562 8.10153V8.10153C9.07939 8.50558 10.7441 7.17802 10.7382 5.38807V5.38807C10.7305 3.0539 13.4319 1.75296 15.2521 3.21431V3.21431C16.6478 4.33494 18.7237 3.86114 19.495 2.24588V2.24588Z" fill="#080808"/>
</svg>
